<svg width="551" height="572" viewBox="0 0 551 572" fill="none" xmlns="http://www.w3.org/2000/svg">
<ellipse cx="275.5" cy="286" rx="275.5" ry="286" fill="#1ED761"/>
<path d="M426.86 208.377C317.384 122.573 173.977 172.625 115.958 208.377C96.1118 232.186 107.689 243.379 115.958 246C255.204 150.313 381.245 206.13 426.86 246C452.469 237.914 437.53 217.549 426.86 208.377Z" fill="black" stroke="black"/>
<path d="M421.365 276.573C315.799 204.902 177.514 246.71 121.567 276.573C102.429 296.461 113.593 305.811 121.567 308C255.84 228.073 377.379 274.697 421.365 308C446.059 301.246 431.654 284.235 421.365 276.573Z" fill="black" stroke="black"/>
<path d="M403.512 340.764C314.214 277.796 194.676 310.408 146.069 334.586C129.259 351.061 138.669 359.222 145.475 361.243C262.288 296.214 365.776 338.266 402.918 367.421C424.251 362.201 412.202 347.475 403.512 340.764Z" fill="black" stroke="black"/>
</svg>
